HIERARCHY
ROOT Hips
{
	OFFSET 0.00000 0.00000 0.00000
	CHANNELS 6 Xposition Yposition Zposition Zrotation Yrotation Xrotation 
	JOINT LHipJoint
	{
		OFFSET 0 0 0
		CHANNELS 3 Zrotation Yrotation Xrotation
		JOINT LeftUpLeg
		{
			OFFSET 1.30186 -1.90722 0.65024
			CHANNELS 3 Zrotation Yrotation Xrotation
			JOINT LeftLeg
			{
				OFFSET 2.56413 -7.04489 0.00000
				CHANNELS 3 Zrotation Yrotation Xrotation
				JOINT LeftFoot
				{
					OFFSET 2.79321 -7.67428 0.00000
					CHANNELS 3 Zrotation Yrotation Xrotation
					JOINT LeftToeBase
					{
						OFFSET 0.15723 -0.43198 2.08537
						CHANNELS 3 Zrotation Yrotation Xrotation
						End Site
						{
							OFFSET 0.00000 -0.00000 1.07411
						}
					}
				}
			}
		}
	}
	JOINT RHipJoint
	{
		OFFSET 0 0 0
		CHANNELS 3 Zrotation Yrotation Xrotation
		JOINT RightUpLeg
		{
			OFFSET -1.28627 -1.90723 0.65024
			CHANNELS 3 Zrotation Yrotation Xrotation
			JOINT RightLeg
			{
				OFFSET -2.56567 -7.04913 0.00000
				CHANNELS 3 Zrotation Yrotation Xrotation
				JOINT RightFoot
				{
					OFFSET -2.75597 -7.57198 0.00000
					CHANNELS 3 Zrotation Yrotation Xrotation
					JOINT RightToeBase
					{
						OFFSET -0.17500 -0.48081 2.22901
						CHANNELS 3 Zrotation Yrotation Xrotation
						End Site
						{
							OFFSET -0.00000 -0.00000 1.14762
						}
					}
				}
			}
		}
	}
	JOINT LowerBack
	{
		OFFSET 0 0 0
		CHANNELS 3 Zrotation Yrotation Xrotation
		JOINT Spine
		{
			OFFSET -0.04522 2.07467 -0.16566
			CHANNELS 3 Zrotation Yrotation Xrotation
			JOINT Spine1
			{
				OFFSET -0.01178 2.08825 -0.05393
				CHANNELS 3 Zrotation Yrotation Xrotation
				JOINT Neck
				{
					OFFSET 0 0 0
					CHANNELS 3 Zrotation Yrotation Xrotation
					JOINT Neck1
					{
						OFFSET -0.05182 1.80489 0.16014
						CHANNELS 3 Zrotation Yrotation Xrotation
						JOINT Head
						{
							OFFSET 0.14739 1.78840 -0.33342
							CHANNELS 3 Zrotation Yrotation Xrotation
							End Site
							{
								OFFSET 0.04364 1.83899 -0.13460
							}
						}
					}
				}
				JOINT LeftShoulder
				{
					OFFSET 0 0 0
					CHANNELS 3 Zrotation Yrotation Xrotation
					JOINT LeftArm
					{
						OFFSET 3.01264 1.29090 -0.06579
						CHANNELS 3 Zrotation Yrotation Xrotation
						JOINT LeftForeArm
						{
							OFFSET 5.55680 -0.00000 0.00000
							CHANNELS 3 Zrotation Yrotation Xrotation
							JOINT LeftHand
							{
								OFFSET 3.63979 -0.00000 -0.00000
								CHANNELS 3 Zrotation Yrotation Xrotation
								JOINT LeftFingerBase
								{
									OFFSET 0 0 0
									CHANNELS 3 Zrotation Yrotation Xrotation
									JOINT LeftHandIndex1
									{
										OFFSET 0.56942 -0.00000 -0.00000
										CHANNELS 3 Zrotation Yrotation Xrotation
										End Site
										{
											OFFSET 0.45908 -0.00000 -0.00000
										}
									}
								}
								JOINT LThumb
								{
									OFFSET 0 0 0
									CHANNELS 3 Zrotation Yrotation Xrotation
									End Site
									{
										OFFSET 0.46609 -0.00000 0.46609
									}
								}
							}
						}
					}
				}
				JOINT RightShoulder
				{
					OFFSET 0 0 0
					CHANNELS 3 Zrotation Yrotation Xrotation
					JOINT RightArm
					{
						OFFSET -3.15796 1.37283 -0.36748
						CHANNELS 3 Zrotation Yrotation Xrotation
						JOINT RightForeArm
						{
							OFFSET -5.34339 -0.00000 0.00000
							CHANNELS 3 Zrotation Yrotation Xrotation
							JOINT RightHand
							{
								OFFSET -3.65101 -0.00000 -0.00000
								CHANNELS 3 Zrotation Yrotation Xrotation
								JOINT RightFingerBase
								{
									OFFSET 0 0 0
									CHANNELS 3 Zrotation Yrotation Xrotation
									JOINT RightHandIndex1
									{
										OFFSET -0.69425 -0.00000 -0.00000
										CHANNELS 3 Zrotation Yrotation Xrotation
										End Site
										{
											OFFSET -0.55972 -0.00000 -0.00000
										}
									}
								}
								JOINT RThumb
								{
									OFFSET 0 0 0
									CHANNELS 3 Zrotation Yrotation Xrotation
									End Site
									{
										OFFSET -0.56827 -0.00000 0.56827
									}
								}
							}
						}
					}
				}
			}
		}
	}
}
MOTION
Frames: 14
Frame Time: 0.0263158
0.00 0.00 0.00 0 0 0 0 0 0 -21 0 0 0 0 0 0 0 0 0 0 0 0 0 0 21 0 0 0 0 0 0 0 0 0 0 0 0 0 0 0 0 0 0 0 0 0 0 -16 0 0 21 0 0 11 0 0 0 -8 0 0 0 0 0 0 0 0 0 0 0 0 0 0 0 0 0 0 0 0 8 0 0 0 0 0 0 0 0 0 0 0 0 0 0 0 0 0
0.00 0.00 0.00 0.9316 -11.7274 4.5209 0.0000 0.0000 0.0000 -15.9416 -10.5171 -15.9931 3.2119 11.0304 32.3823 1.3902 0.2194 -22.3838 0.4211 -4.1649 -11.5410 0.0000 0.0000 0.0000 14.8693 16.3893 -13.2015 -2.9929 -10.6836 31.2200 -0.5242 -10.0076 -20.7629 -0.0194 -0.8987 2.4702 -4.2843 -0.4984 0.4693 -0.3056 -0.6825 0.2434 2.0900 -0.3457 0.0331 -0.8423 -0.3621 -13.8370 -1.5778 -0.0455 15.0287 -0.3765 -0.2139 6.8712 0.0000 -0.0000 0.0000 -47.7312 -54.2860 18.9966 36.9228 -46.1373 -16.1844 -0.0000 0.0000 -27.3359 8.6499 18.9187 2.8237 -7.1250 0.0000 -0.0000 -18.8415 48.1636 -1.5210 0.0000 -0.0000 0.0000 93.6018 38.0959 66.9599 -76.8255 59.3339 -48.6160 0.0000 -0.0000 -2.2157 -33.3582 21.1057 -13.3363 7.1250 -0.0000 -0.0000 -2.9459 -5.2053 -2.6701
0.00 0.00 0.00 0.5813 -12.1947 4.9801 0.0000 0.0000 0.0000 -15.3347 -11.3778 -16.0463 3.2221 11.0462 32.4360 1.4269 1.4261 -23.1288 0.3591 -3.8498 -10.6546 0.0000 0.0000 0.0000 15.3027 16.9660 -13.5636 -2.9838 -10.6688 31.1710 -0.5196 -9.8323 -20.5444 -0.0487 -1.4237 3.9155 -4.9560 -0.6251 0.3809 -0.2034 -0.8503 0.1912 2.5709 -0.4299 0.0519 -0.6821 -0.7791 -14.9657 -1.2147 -0.6943 15.3033 -0.3565 -0.4883 7.1528 0.0000 -0.0000 0.0000 -55.2491 -62.5418 24.2208 25.9144 -37.1240 -8.8359 -0.0000 0.0000 -21.9053 17.3014 21.1099 6.4011 -7.1250 0.0000 -0.0000 -11.5207 51.6354 -1.9037 0.0000 -0.0000 0.0000 101.1281 48.2823 69.4998 -46.5483 51.5048 -23.4443 0.0000 0.0000 2.5509 -33.5438 22.3635 -14.1577 7.1250 -0.0000 -0.0000 -2.8502 -3.7354 -2.6618
0.00 0.00 0.00 1.8655 -10.7353 2.3272 0.0000 0.0000 0.0000 -11.1606 -10.5209 -17.3941 3.3603 11.2567 33.1504 0.8977 0.9146 -18.2548 0.6336 -5.0932 -14.1745 0.0000 0.0000 0.0000 18.7939 13.3482 -17.2072 -3.7682 -11.8454 35.1874 -0.6609 -7.0532 -19.5132 -0.4180 -4.1496 11.4980 -3.6341 -0.0583 2.4996 1.1932 -0.1356 3.5441 3.2678 -0.1756 2.2576 -0.6539 2.0222 -13.3901 -6.0378 3.6722 10.7700 -1.4761 1.3133 5.5588 -0.0000 -0.0000 0.0000 -70.9998 -40.0222 32.9497 63.6219 -57.2003 -37.3706 -0.0000 0.0000 -15.9673 34.5266 19.0123 12.6323 -7.1250 0.0000 -0.0000 6.5611 52.5586 1.2248 -0.0000 -0.0000 0.0000 78.8407 26.8780 43.9957 -30.8773 41.6336 -11.9882 0.0000 -0.0000 -6.4730 -31.7109 35.6057 -19.7852 7.1250 -0.0000 -0.0000 0.8773 10.1048 1.0177
0.00 0.00 0.00 2.4590 -6.1442 2.4772 0.0000 0.0000 0.0000 -11.6465 -8.5537 -22.1999 4.4243 12.7046 38.2724 1.2168 -1.1208 -20.5168 0.6275 -5.0689 -14.1051 0.0000 0.0000 0.0000 18.7891 10.1898 -19.4612 -3.9575 -12.1037 36.0997 -0.6532 -8.1880 -20.3764 -0.4710 -4.4016 12.2094 -0.8883 0.2070 5.2200 0.9253 0.2404 2.1524 1.4341 0.1117 -0.7219 0.4104 1.3753 -13.4823 -6.1706 2.6618 11.5261 -1.7821 0.8396 5.7955 0.0000 0.0000 0.0000 -76.0158 -9.9653 41.6483 69.7141 -58.3865 -42.5271 -0.0000 0.0000 -20.3542 32.0431 18.1527 11.0345 -7.1250 0.0000 -0.0000 4.0338 51.0826 0.6053 0.0000 0.0000 0.0000 76.6770 8.4441 34.9994 -23.9898 35.1535 -7.7007 0.0000 -0.0000 -5.5333 -31.1302 34.1077 -18.7097 7.1250 -0.0000 -0.0000 0.8427 8.3670 0.9565
0.00 0.00 0.00 2.2608 -4.9713 1.4039 0.0000 0.0000 0.0000 -16.0555 -0.5602 -21.7786 8.0982 16.1910 52.9155 1.2319 -0.3738 -20.8714 0.7154 -5.4053 -15.0684 0.0000 0.0000 0.0000 19.3179 5.6507 -18.2909 -3.6137 -11.6279 34.4279 -1.1232 -4.1869 -21.9368 -0.2279 -3.0728 8.4816 -0.2301 -0.0712 4.1266 1.2849 -0.1057 2.7925 1.4501 -0.0675 0.5549 1.8276 1.6356 -13.2668 -6.2790 2.7619 11.6664 -2.0406 0.9452 5.8239 -0.0000 -0.0000 0.0000 -82.8546 11.3239 30.7588 46.2100 -51.3477 -23.1799 -0.0000 0.0000 -17.7049 31.1044 19.8043 11.5532 -7.1250 0.0000 -0.0000 2.8401 52.7682 0.5433 -0.0000 -0.0000 0.0000 78.5385 -6.1346 22.9062 -18.8042 29.1746 -4.9350 0.0000 -0.0000 -3.2625 -30.9993 32.1863 -17.7474 7.1250 -0.0000 -0.0000 0.4973 6.3078 0.5490
0.00 0.00 0.00 -0.3401 10.6845 4.1604 0.0000 0.0000 0.0000 -10.7180 -6.8729 -25.0127 7.7231 15.9117 51.5590 -1.1158 -24.4170 -8.3652 1.8817 -8.6151 -24.5986 0.0000 0.0000 0.0000 12.1704 16.8288 -14.9558 -3.3621 -11.2594 33.1598 -1.7850 5.3219 -24.1190 -0.2195 3.0158 -8.3227 1.2137 0.5595 8.2579 1.2385 0.8844 2.2615 0.5064 0.4394 -2.2905 -1.6251 0.7454 -13.2292 -2.7804 1.6388 9.1295 -0.4724 0.5573 4.9160 0.0000 -0.0000 0.0000 -86.3362 7.8468 22.0913 33.8605 -43.9811 -14.0161 -0.0000 0.0000 -15.5012 26.7055 12.2144 6.0754 -7.1250 0.0000 -0.0000 -0.4811 43.6006 0.0166 0.0000 -0.0000 0.0000 76.6661 3.8983 24.2649 -27.9956 39.1122 -10.1209 0.0000 -0.0000 -5.7267 -35.2656 36.7928 -22.9537 7.1250 -0.0000 -0.0000 -0.6817 12.5073 -0.8132
0.00 0.00 0.00 -3.8828 -10.6674 0.8562 0.0000 0.0000 0.0000 -18.0640 -1.9020 -19.1381 6.5121 14.9068 47.0038 2.3946 -7.3674 -27.9097 0.1385 -2.3983 -6.6078 0.0000 0.0000 0.0000 15.0871 5.5224 -25.0992 -7.1794 -15.4812 49.5498 -1.2843 -7.1166 -25.0607 -0.0820 1.8470 -5.0830 -1.5254 1.7099 6.5230 1.1326 2.1953 1.9089 1.8456 1.0953 -1.7886 -0.7341 2.6638 -5.7780 -0.8944 3.7263 8.6028 0.0235 1.7766 3.8280 0.0000 0.0000 0.0000 -85.0323 9.7227 21.4643 30.6882 -41.4761 -11.8628 -0.0000 0.0000 -13.6230 26.0131 12.2618 5.9172 -7.1250 0.0000 -0.0000 -1.1200 43.5722 0.0395 0.0000 0.0000 0.0000 78.4083 1.5813 27.1745 -24.5343 35.7242 -8.0164 0.0000 -0.0000 -3.2969 -32.7400 39.4180 -22.2088 7.1250 -0.0000 -0.0000 1.3172 14.3486 1.6029
0.00 0.00 0.00 -8.8118 -28.1842 -2.1451 0.0000 0.0000 0.0000 -9.1485 4.0252 -25.8092 12.8385 18.7231 68.6232 0.8144 -13.2296 -17.3697 0.3999 -4.0603 -11.2464 0.0000 0.0000 0.0000 18.2017 2.5471 -10.3806 -6.3484 -14.7577 46.3645 -1.4440 -5.5377 -25.2929 -0.3266 3.6729 -10.1581 3.8267 2.3755 3.3123 2.2049 3.3609 -0.2997 -0.0422 1.6422 -2.0772 1.5136 4.1531 -2.1956 -2.1144 5.7810 15.0174 -0.6159 2.7722 4.9754 0.0000 0.0000 0.0000 -86.8860 12.7659 19.5797 29.6852 -40.6221 -11.2041 -0.0000 0.0000 -11.8383 25.1668 9.5249 4.4458 -7.1250 0.0000 -0.0000 -1.5881 40.4776 0.1771 0.0000 0.0000 0.0000 77.4378 6.4686 25.4358 -24.2581 35.4360 -7.8557 0.0000 -0.0000 -6.3082 -31.5083 37.7842 -20.5851 7.1250 -0.0000 -0.0000 1.5159 12.2875 1.8043
0.00 0.00 0.00 -16.8295 -77.0706 9.1526 0.0000 0.0000 0.0000 -7.2124 -2.3870 -30.9233 15.3898 19.4826 76.4081 0.8344 -14.8775 -18.0824 0.1538 -2.5269 -6.9642 0.0000 0.0000 0.0000 9.4730 10.0032 -19.7292 -10.0183 -17.4201 59.5495 -0.6172 -8.2767 -20.0909 -0.9367 6.1649 -17.2637 3.6871 5.1763 9.4379 0.3692 7.0881 3.9968 -2.3401 3.5347 -0.7024 13.8712 7.4019 -4.5962 -11.5991 9.8871 7.8626 -5.2401 4.8086 4.3715 0.0000 0.0000 0.0000 -73.5565 2.6967 39.8856 45.8508 -51.1785 -22.8997 -0.0000 0.0000 -18.7159 8.3124 3.8996 0.5693 -7.1250 0.0000 -0.0000 -14.9018 33.6293 4.2787 0.0000 0.0000 0.0000 72.9656 10.5078 16.6511 -24.4932 35.6815 -7.9924 0.0000 -0.0000 -3.3649 -33.8713 39.4298 -23.0899 7.1250 -0.0000 -0.0000 0.7534 14.7391 0.9203
0.00 0.00 0.00 -30.2198 -84.6588 16.4571 0.0000 0.0000 0.0000 -4.3240 -1.9643 -19.6464 21.0912 19.9714 93.1919 -0.4594 -17.3400 -7.1374 0.0133 -0.7434 -2.0431 0.0000 0.0000 0.0000 5.0569 10.5204 -17.5342 -8.9846 -16.7978 56.0369 -0.9512 -1.9965 -19.2460 -1.3991 7.4826 -21.1531 1.7004 5.9081 8.8470 -0.8557 7.8235 4.8551 -2.4459 3.9022 0.4643 18.2740 6.2807 -0.5481 -9.5598 8.5281 8.6934 -5.5218 4.4640 3.8876 -0.0000 -0.0000 0.0000 -66.4596 2.1664 45.6833 46.2187 -51.3518 -23.1867 -0.0000 0.0000 -18.0285 31.4134 9.9132 6.0020 -7.1250 0.0000 -0.0000 3.9466 41.5205 -0.3393 -0.0000 -0.0000 0.0000 73.8488 10.6503 8.0216 -24.0070 35.1717 -7.7106 0.0000 -0.0000 -2.1648 -32.9911 39.6061 -22.4827 7.1250 -0.0000 -0.0000 1.2430 14.6224 1.5168
0.00 0.00 0.00 -118.9690 -86.6770 104.8880 0.0000 0.0000 0.0000 -5.4874 -0.6645 -13.7770 20.4439 19.9953 91.2981 -0.7238 -15.1905 9.0259 0.3375 3.7334 10.3277 0.0000 0.0000 0.0000 3.8621 12.6486 -18.8599 -7.8463 -16.0050 52.0072 -0.6170 2.0109 -14.2862 -1.4804 7.6876 -21.7693 1.2799 3.3546 7.4715 1.3054 4.3951 4.8623 0.3382 2.1496 0.8365 8.9234 9.5957 0.2915 -7.0186 13.1928 10.1039 -3.0024 6.5519 4.0351 -0.0000 -0.0000 0.0000 -72.7653 5.4350 35.1752 44.3388 -50.4404 -21.7278 -0.0000 0.0000 -14.7691 26.9165 7.9888 4.0361 -7.1250 0.0000 -0.0000 0.0610 38.9243 -0.0091 -0.0000 -0.0000 0.0000 70.0365 14.4381 14.8631 -23.9044 35.0629 -7.6515 0.0000 -0.0000 -5.0806 -35.1987 40.0477 -24.4116 7.1250 -0.0000 -0.0000 0.2707 15.8272 0.3343
0.00 0.00 0.00 -174.1250 -78.5376 162.0030 0.0000 0.0000 0.0000 -16.2004 -0.1220 -4.0115 14.7360 19.3222 74.4401 -1.9932 -24.0607 8.1958 0.2810 3.4094 9.4206 0.0000 0.0000 0.0000 -0.9252 15.0941 -21.9505 -4.8193 -13.1774 40.0363 -0.2049 -1.3589 -9.1584 -1.5236 7.7940 -22.0902 1.3819 1.6887 2.9548 2.2725 2.1003 4.3898 1.5512 1.0019 2.8228 4.6973 12.0120 -2.4361 -6.5130 16.6070 13.1704 -1.7606 7.9300 5.3153 -0.0000 -0.0000 0.0000 -78.8206 7.8550 26.6297 42.3480 -49.4011 -20.2044 -0.0000 0.0000 -16.9603 28.6567 9.2905 5.0420 -7.1250 0.0000 -0.0000 1.5112 40.5351 -0.1664 -0.0000 -0.0000 0.0000 67.4114 18.4858 16.8748 -24.4060 35.5906 -7.9416 0.0000 -0.0000 -7.5335 -34.6886 37.5232 -22.8588 7.1250 -0.0000 -0.0000 -0.1868 13.0648 -0.2243
0.00 0.00 0.00 -177.8400 -64.1026 164.7700 0.0000 0.0000 0.0000 -23.7188 4.9318 -15.3835 15.0131 19.3930 75.2763 -0.9820 -23.0957 -8.0230 0.0977 2.0161 5.5502 0.0000 0.0000 0.0000 -0.9568 17.1608 -28.0285 -14.2246 -19.1807 72.8892 0.1426 -9.3782 -10.4375 -0.0831 1.8594 -5.1172 2.6768 2.8656 7.8718 2.8186 3.9474 2.7190 1.0488 1.9119 -1.6101 10.5380 11.7060 -4.7647 -11.2106 16.4046 14.0778 -3.8538 7.7075 6.8791 0.0000 0.0000 0.0000 -73.6258 10.9384 37.0999 32.2586 -42.7523 -12.9160 -0.0000 0.0000 -7.5073 24.9859 5.8111 2.7014 -7.1250 0.0000 -0.0000 -1.4558 36.3829 0.3086 0.0000 0.0000 0.0000 67.9604 12.9988 11.3910 -28.3577 39.4435 -10.3502 0.0000 -0.0000 -8.1566 -36.4420 37.9554 -24.4251 7.1250 -0.0000 -0.0000 -0.9602 14.1316 -1.1657
